<svg width="32" height="32" viewBox="0 0 32 32" fill="none" xmlns="http://www.w3.org/2000/svg">
  <path d="M25.6 7.4335C23.2533 6.36683 20.8 5.6535 18.2667 5.3335C18.2667 5.3335 18 5.6335 17.7867 6.00016C15.3333 5.7335 12.9333 5.7335 10.5333 6.00016C10.32 5.6335 10.04 5.3335 10.04 5.3335C7.50667 5.6535 5.04 6.36683 2.70667 7.4335C0.933333 10.5602 0.133333 13.8468 0 17.2002C2.05333 18.7335 4.33333 19.6668 6.70667 20.2668C7.14667 19.6668 7.54667 19.0335 7.89333 18.3735C7.26667 18.1468 6.66667 17.8668 6.08 17.5602C6.29333 17.4135 6.5 17.2602 6.69333 17.1068C10.6267 18.9068 14.9333 18.9068 18.8267 17.1068C19.0267 17.2668 19.2267 17.4135 19.44 17.5602C18.8533 17.8668 18.24 18.1468 17.6133 18.3735C17.96 19.0335 18.36 19.6668 18.8 20.2668C21.1733 19.6668 23.4667 18.7335 25.5067 17.2002C25.4 14.3002 24.88 11.4535 23.6533 8.80016C22.6267 8.14683 21.5333 7.7335 20.4267 7.4335H25.6ZM10.7333 15.0802C9.36 15.0802 8.22667 13.8268 8.22667 12.3202C8.22667 10.8135 9.33333 9.56016 10.7333 9.56016C12.1333 9.56016 13.2667 10.8135 13.2667 12.3202C13.2667 13.8268 12.1333 15.0802 10.7333 15.0802ZM21.2667 15.0802C19.8933 15.0802 18.7333 13.8268 18.7333 12.3202C18.7333 10.8135 19.8667 9.56016 21.2667 9.56016C22.6667 9.56016 23.8 10.8135 23.8 12.3202C23.8 13.8268 22.6667 15.0802 21.2667 15.0802Z" fill="#5865F2"/>
</svg>