<svg xmlns="http://www.w3.org/2000/svg" width="24" height="24" viewBox="0 0 24 24" fill="none" stroke="#ffaac3" stroke-width="2" stroke-linecap="round" stroke-linejoin="round">
  <circle cx="9" cy="12" r="1"></circle>
  <circle cx="15" cy="12" r="1"></circle>
  <path d="M7.5 7.5c3.5-1 5.5-1 9 0"></path>
  <path d="M7 16.5c3.5 1 6.5 1 10 0"></path>
  <path d="M15.5 17c0 1 1.5 3 2 3 1.5 0 2.833-1.167 3.5-3.5 1-1.667 1.5-5.833 0-8.5-1.5-2.667-3-3.5-4.5-3.5-1.5 0-4.5 1.5-5.5 3.5"></path>
  <path d="M8.5 17c0 1-1.356 3-1.832 3-1.429 0-2.698-1.167-3.333-3.5-.786-1.667-1.548-5.833 0-8.5C4.667 5.333 6.167 4.5 7.5 4.5c1.5 0 4.5 1.5 5.5 3.5"></path>
</svg>