<svg width="32" height="32" viewBox="0 0 32 32" fill="none" xmlns="http://www.w3.org/2000/svg">
  <path d="M5.33333 8.00002C4.96514 8.00002 4.61228 8.1405 4.35223 8.40055C4.09219 8.6606 3.95171 9.01345 3.95171 9.38164V22.6184C3.95171 22.9866 4.09219 23.3394 4.35223 23.5995C4.61228 23.8595 4.96514 24 5.33333 24H26.6667C27.0349 24 27.3877 23.8595 27.6478 23.5995C27.9078 23.3394 28.0483 22.9866 28.0483 22.6184V9.38164C28.0483 9.01345 27.9078 8.6606 27.6478 8.40055C27.3877 8.1405 27.0349 8.00002 26.6667 8.00002H5.33333ZM8.01333 20H6.66667V12H8.01333V20ZM7.33333 11.0134C6.96 11.0134 6.66667 10.7067 6.66667 10.3334C6.66667 9.96002 6.98 9.65335 7.33333 9.65335C7.70667 9.65335 8 9.96002 8 10.3334C8 10.7067 7.70667 11.0134 7.33333 11.0134ZM22.6667 20H21.32V16.06C21.32 14.9467 20.8933 14.3467 19.9533 14.3467C18.94 14.3467 18.3533 15.0134 18.3533 16.06V20H17V12H18.3533V13.1334C18.6733 12.3867 19.48 11.88 20.54 11.88C21.9667 11.88 22.6667 12.8067 22.6667 14.5667V20ZM13.3333 13.7467C14.2 13.7467 16 14.1067 16 16.0667V20H14.66V16.0667C14.66 15.4 14.2267 14.8267 13.3333 14.8267C12.44 14.8267 12.0067 15.4 12.0067 16.0667V20H10.6667V12H12.0067V13.1334C12.3133 12.42 13.0067 11.88 13.9867 11.88C14.0467 11.88 14.7867 11.8934 14.7867 11.9667V13.7467C14.5067 13.7467 13.7733 13.7467 13.3333 13.7467Z" fill="#ffaac3"/>
</svg> 