<svg width="32" height="32" viewBox="0 0 32 32" fill="none" xmlns="http://www.w3.org/2000/svg">
  <path d="M16 2.66669C8.63621 2.66669 2.66663 8.63626 2.66663 16C2.66663 23.3638 8.63621 29.3334 16 29.3334C23.3637 29.3334 29.3333 23.3638 29.3333 16C29.3333 8.63626 23.3637 2.66669 16 2.66669ZM22.9187 11.0347L20.5173 21.7094C20.3307 22.5707 19.832 22.7814 19.104 22.3774L15.3333 19.5867L13.512 21.3414C13.3093 21.544 13.1387 21.7147 12.744 21.7147L13.016 17.872L20.1613 11.4667C20.4693 11.1947 20.0933 11.0427 19.6813 11.3147L10.808 16.7254L7.08263 15.672C6.24263 15.4214 6.22663 14.8574 7.25596 14.4534L21.8267 9.05069C22.5413 8.81336 23.1413 9.22536 22.9187 11.0347Z" fill="#229ED9"/>
</svg>