<svg width="32" height="32" viewBox="0 0 32 32" fill="none" xmlns="http://www.w3.org/2000/svg">
  <path d="M28 8.55997C27.117 8.94997 26.168 9.21297 25.172 9.33197C26.189 8.72297 26.97 7.75797 27.337 6.60797C26.386 7.17197 25.332 7.58297 24.21 7.80497C23.313 6.84597 22.032 6.24997 20.616 6.24997C17.437 6.24997 15.101 9.21397 15.835 12.293C11.76 12.094 8.113 10.233 5.671 7.39997C4.381 9.58397 5.002 12.409 7.194 13.912C6.388 13.888 5.628 13.662 4.965 13.283C4.911 15.549 6.546 17.642 8.914 18.115C8.221 18.306 7.462 18.349 6.69 18.203C7.316 20.114 9.134 21.494 11.29 21.533C9.22 23.119 6.612 23.845 4 23.54C6.177 24.896 8.76 25.69 11.548 25.69C20.69 25.69 25.855 18.115 25.543 11.295C26.505 10.589 27.34 9.70997 28 8.70997" fill="#1DA1F2"/>
</svg>